<svg width="518" height="243" viewBox="0 0 518 243" fill="none" xmlns="http://www.w3.org/2000/svg">
<path fill-rule="evenodd" clip-rule="evenodd" d="M0 34.7143L21.5833 40.5C43.1667 46.2857 86.3333 57.8571 129.5 46.2857C172.667 34.7143 215.833 0 259 0C302.167 0 345.333 34.7143 388.5 40.5C431.667 46.2857 474.833 23.1429 496.417 11.5714L518 0V243H496.417C474.833 243 431.667 243 388.5 243C345.333 243 302.167 243 259 243C215.833 243 172.667 243 129.5 243C86.3333 243 43.1667 243 21.5833 243H0V34.7143Z" fill="white"/>
</svg>
